<svg xmlns="http://www.w3.org/2000/svg" viewBox="0 0 369.4 89.25"><defs><style>.cls-1{fill:#c94554;}.cls-2{fill:#7fa344;}.cls-3{fill:#5c2134;}.cls-4{fill:#d3a676;}</style></defs><title>Ativo 2</title><g id="Camada_2" data-name="Camada 2"><g id="Camada_1-2" data-name="Camada 1"><rect class="cls-1" x="29.92" y="79.07" width="52.46" height="3.13"/><rect class="cls-2" x="29.92" y="86.12" width="52.46" height="3.13"/><rect class="cls-1" x="287.01" y="79.07" width="52.46" height="3.13"/><rect class="cls-2" x="287.01" y="86.12" width="52.46" height="3.13"/><path class="cls-3" d="M106.31,79a5.1,5.1,0,0,1,3.33,1,2.3,2.3,0,0,1,.77,1.83,2.61,2.61,0,0,1-.88,2c-.89.8-1.64.94-3.29.94-.4,0-.65,0-1.06,0v2.75c0,1.17.2,1.37,1.44,1.43v.29h-4.3v-.29c1.2-.09,1.29-.26,1.29-1.58V80.73c0-1.14-.15-1.32-1.29-1.41V79Zm-1.12,5.09c.35,0,.63,0,.94,0,1.69,0,2.61-.88,2.61-2.26,0-1.69-.92-2.3-3-2.3-.45,0-.54.14-.54.55Z"/><path class="cls-3" d="M124.76,89.2v-.29c1.29,0,1.49-.23,1.49-1.43V80.73c0-1.22-.18-1.34-1.49-1.41V79h4.56v.29c-1.29.06-1.51.25-1.51,1.41v6.75c0,1.15.25,1.38,1.51,1.43v.29Z"/><path class="cls-3" d="M152.25,89.2h-8.65V89l6.72-9.36H147a2.78,2.78,0,0,0-2.06.54,2.34,2.34,0,0,0-.63,1.51h-.4l.32-2.63h8.07v.23l-6.64,9.36h3.87a3,3,0,0,0,1.8-.43c.51-.35.65-.78.92-1.69h.35Z"/><path class="cls-3" d="M175.49,89.2h-8.65V89l6.72-9.36h-3.29a2.78,2.78,0,0,0-2.06.54,2.34,2.34,0,0,0-.63,1.51h-.4L167.5,79h8.07v.23l-6.64,9.36h3.87a3,3,0,0,0,1.8-.43c.51-.35.65-.78.92-1.69h.35Z"/><path class="cls-3" d="M198.4,89.2h-8.28v-.29c1.18-.08,1.34-.28,1.34-1.46v-6.7c0-1.14-.18-1.37-1.34-1.43V79h8.14l.06,2.2h-.38c-.23-1.38-.58-1.61-2.37-1.61h-2c-.43,0-.54.06-.54.55v3.38h2.32c1.32,0,1.55-.26,1.74-1.47h.35v3.6h-.35c-.18-1.29-.42-1.49-1.74-1.49H193v3.73c0,.65.41.72,1.55.72h.55c2.2,0,2.86-.4,3.55-2h.43Z"/><path class="cls-3" d="M220.81,89.2l-3.66-4.73-.86,0v3c0,1.17.18,1.35,1.37,1.43v.29h-4.24v-.29c1.15-.09,1.31-.26,1.31-1.61V80.73c0-1.14-.12-1.32-1.31-1.41V79h4.18a5.1,5.1,0,0,1,3.21.91,2.43,2.43,0,0,1,.75,1.84c0,1.34-.86,2.23-2.78,2.52l3.07,3.89a1.66,1.66,0,0,0,1.44.72v.29Zm-4.52-5.27a5.13,5.13,0,0,0,2.72-.52,2,2,0,0,0,.88-1.75c0-1.38-.91-2.06-2.81-2.06-.52,0-.78.11-.78.65Z"/><path class="cls-3" d="M237.53,89.2v-.29c1.29,0,1.49-.23,1.49-1.43V80.73c0-1.22-.18-1.34-1.49-1.41V79h4.56v.29c-1.29.06-1.51.25-1.51,1.41v6.75c0,1.15.25,1.38,1.51,1.43v.29Z"/><path class="cls-3" d="M263.15,89.2v-.29c.55,0,.66,0,.84-.14a.45.45,0,0,0,.22-.37,3.25,3.25,0,0,0-.29-1.08l-.63-1.44h-4l-.71,1.75a2,2,0,0,0-.14.65c0,.48.34.63,1.08.63v.29h-3.06v-.29c.89-.09,1-.41,1.94-2.57l3.17-7.5h.31l3.78,8.65c.43,1,.65,1.32,1.44,1.41v.29ZM261.29,81l-1.77,4.23h3.55Z"/><path class="cls-3" d="M112.86,51.9v-.8h.58a1.82,1.82,0,0,0,1.48-.75,2.64,2.64,0,0,0,.6-1.68V4.3q-1.44.44-5.14,1.63T104.8,7.68q-1.88.56-4.74,1.32A45.29,45.29,0,0,1,95,10.08a28.81,28.81,0,0,1-4.13.32,11.59,11.59,0,0,1-6-1.38A4.34,4.34,0,0,1,82.54,5.1a2.82,2.82,0,0,1,.67-1.83,2,2,0,0,1,1.64-.82,2,2,0,0,1,1.32.47,1.45,1.45,0,0,1,.54,1.14,1.32,1.32,0,0,1-.44,1,11,11,0,0,1-.89.73.92.92,0,0,0-.44.74,2.42,2.42,0,0,0,1.34,2.06,9.14,9.14,0,0,0,4.59.84,33.5,33.5,0,0,0,7.4-1q4.21-1,8.43-2.36l8.52-2.78A87.2,87.2,0,0,1,124.1,1a40.57,40.57,0,0,1,8.33-1,35.36,35.36,0,0,1,8.87,1.09,29.19,29.19,0,0,1,7.47,3,31.36,31.36,0,0,1,5.91,4.44A25.25,25.25,0,0,1,159,14a26.88,26.88,0,0,1,2.63,6.08,22.3,22.3,0,0,1,.91,6.25,23.29,23.29,0,0,1-1.43,8,26.35,26.35,0,0,1-4,7.21,32.25,32.25,0,0,1-5.78,5.79,26.08,26.08,0,0,1-7.17,3.93,22.88,22.88,0,0,1-7.82,1.41,16.18,16.18,0,0,1-9.72-2.93,10.37,10.37,0,0,1-4.56-7.53v6.68a2.29,2.29,0,0,0,.61,1.57,1.9,1.9,0,0,0,1.47.69h.58v.8Zm9.31-12.06a10.87,10.87,0,0,1,1.29-4.31,9.65,9.65,0,0,1,2.66-3.12,12,12,0,0,1,3.51-1.81,12.58,12.58,0,0,1,3.91-.62,10.61,10.61,0,0,1,6.68,2.16A7,7,0,0,1,143,38a5.9,5.9,0,0,1-1.82,4.44,6.07,6.07,0,0,1-4.37,1.75,3.45,3.45,0,0,1-2.09-.66,2,2,0,0,1-.9-1.67,1.55,1.55,0,0,1,.43-1.1,1.41,1.41,0,0,1,1.07-.45,1.5,1.5,0,0,1,1,.34,1.37,1.37,0,0,1,.46.73,1.44,1.44,0,0,0,.43.73,1.35,1.35,0,0,0,1,.34,3.52,3.52,0,0,0,2.65-1.24A4.5,4.5,0,0,0,142.05,38a6.17,6.17,0,0,0-2.49-5,9.34,9.34,0,0,0-6-2,10.05,10.05,0,0,0-7.37,2.85,9.88,9.88,0,0,0-2.91,7.27,8.45,8.45,0,0,0,.87,3.65,11.86,11.86,0,0,0,2.48,3.4,12.23,12.23,0,0,0,4.19,2.56,15.56,15.56,0,0,0,5.66,1A16.14,16.14,0,0,0,143,50.33a17.2,17.2,0,0,0,5.42-3.73,24.18,24.18,0,0,0,4-5.55,28.26,28.26,0,0,0,2.59-6.94,33.84,33.84,0,0,0,.89-7.78,25.92,25.92,0,0,0-.78-6.28,28.2,28.2,0,0,0-2.2-5.94,24.31,24.31,0,0,0-3.58-5.23,25,25,0,0,0-4.78-4.17,22,22,0,0,0-6-2.76,24.12,24.12,0,0,0-7-1,39.57,39.57,0,0,0-9.51,1.45Z"/><path class="cls-3" d="M163.72,51.86V51h.47a1.43,1.43,0,0,0,1.19-.63,2.31,2.31,0,0,0,.47-1.42V15.12a2.31,2.31,0,0,0-.47-1.42,1.43,1.43,0,0,0-1.19-.63h-.47v-.85h9.59v.85h-.47a1.43,1.43,0,0,0-1.19.63,2.31,2.31,0,0,0-.47,1.42V49a2.31,2.31,0,0,0,.47,1.42,1.43,1.43,0,0,0,1.19.63h.47v.85Z"/><path class="cls-3" d="M206.26,6q-3.13,1.29-5.1,2a41.29,41.29,0,0,1-4.7,1.35,22.44,22.44,0,0,1-5,.63,10.27,10.27,0,0,1-2.13-.22,8.38,8.38,0,0,1-2-.71,3.82,3.82,0,0,1-1.58-1.48,4.44,4.44,0,0,1-.6-2.33,3.1,3.1,0,0,1,.67-1.94,2,2,0,0,1,1.64-.86,1.88,1.88,0,0,1,1.32.49,1.57,1.57,0,0,1,.54,1.21,1.78,1.78,0,0,1-.69,1.33,1.76,1.76,0,0,0-.69,1.3,1.87,1.87,0,0,0,1.07,1.52,4.55,4.55,0,0,0,2.48.67A21.55,21.55,0,0,0,197.26,8a58.84,58.84,0,0,0,6.4-2.24q3.17-1.32,6.47-2.64A52.63,52.63,0,0,1,217.19.92,29.93,29.93,0,0,1,224.33,0a28.59,28.59,0,0,1,8.08,1.06,16.57,16.57,0,0,1,5.84,2.88,12.91,12.91,0,0,1,3.44,4.17,10.92,10.92,0,0,1,1.19,5,11.69,11.69,0,0,1-2,6.16,19.82,19.82,0,0,1-5.24,5.56A32.22,32.22,0,0,1,240.23,27a24.86,24.86,0,0,1,4.16,3,20.65,20.65,0,0,1,3.48,4,19.51,19.51,0,0,1,2.33,5.09,21.28,21.28,0,0,1,.89,6.23,22,22,0,0,1-1.29,7.52,21.17,21.17,0,0,1-3.55,6.32,29.43,29.43,0,0,1-5.3,5,30.57,30.57,0,0,1-6.54,3.68,40.26,40.26,0,0,1-7.26,2.21,37.31,37.31,0,0,1-7.5.77,34.2,34.2,0,0,1-10.3-1.58A32.29,32.29,0,0,1,200.46,65a21.74,21.74,0,0,1-6.21-6.56,15.44,15.44,0,0,1-2.36-8.15A16.84,16.84,0,0,1,193,44.11a15.59,15.59,0,0,1,3.12-5,21,21,0,0,1,4.55-3.68,25.08,25.08,0,0,1,5.57-2.47Zm-2.66,45.8v-.85h.58a1.79,1.79,0,0,0,1.48-.8,2.9,2.9,0,0,0,.6-1.78V34.73a15.38,15.38,0,0,0-6.46,6.6,19.3,19.3,0,0,0-2.22,9,17,17,0,0,0,1.19,6.27A17.85,17.85,0,0,0,202.08,62,23.9,23.9,0,0,0,207,66.14a22.93,22.93,0,0,0,6,2.75,23.5,23.5,0,0,0,6.65,1A27.55,27.55,0,0,0,229,68.34a21.47,21.47,0,0,0,7-4,24.07,24.07,0,0,0,4.75-5.7,24.61,24.61,0,0,0,2.81-6.58,26.73,26.73,0,0,0,.86-6.71,24.48,24.48,0,0,0-.87-6.63,19.25,19.25,0,0,0-2.43-5.46,23.11,23.11,0,0,0-3.44-4.12,20.38,20.38,0,0,0-4.13-3,19,19,0,0,1-9.31,2.47,15.79,15.79,0,0,1-5.34-.73q-2-.73-2-2.07t2.16-2.29a14.2,14.2,0,0,1,5.52-.92A30,30,0,0,1,233.17,24a14.28,14.28,0,0,0,4.35-10.87,11.92,11.92,0,0,0-.86-4.48,12.3,12.3,0,0,0-2.47-3.86A11.47,11.47,0,0,0,230,2a15.18,15.18,0,0,0-5.7-1,34.74,34.74,0,0,0-11.42,2.33V31.68Q214,31.6,215,31.6a24.2,24.2,0,0,1,4.81.48,19.59,19.59,0,0,1,4.53,1.51,16.61,16.61,0,0,1,3.81,2.47,10.58,10.58,0,0,1,2.62,3.5,10.37,10.37,0,0,1,1,4.48A8.17,8.17,0,0,1,229,50.42a9,9,0,0,1-6.15,2.46,6.81,6.81,0,0,1-4-1.12,3.22,3.22,0,0,1-1.58-2.64,1.53,1.53,0,0,1,.47-1.19,1.56,1.56,0,0,1,1.08-.43,1.5,1.5,0,0,1,1.08.4,1.21,1.21,0,0,1,.42.89,1.6,1.6,0,0,1-.21.77,1.2,1.2,0,0,0,.64,1.83,4.3,4.3,0,0,0,2.15.48A7.89,7.89,0,0,0,230.76,44a9.11,9.11,0,0,0-2.27-6.11,14,14,0,0,0-5.81-4A21.47,21.47,0,0,0,215,32.62q-.75,0-2.13.11V48.35a2.9,2.9,0,0,0,.6,1.78,1.79,1.79,0,0,0,1.48.8h.58v.85Zm21-28.14a10.06,10.06,0,0,0-3.91.69q-1.64.69-1.64,1.51t1.43,1.28a10.81,10.81,0,0,0,3.73.53,12.5,12.5,0,0,0,7.43-2.42A17.48,17.48,0,0,0,224.64,23.64Z"/><path class="cls-3" d="M277.1,52.6q0-.74-1.14-.74H252.62V51h.47a1.43,1.43,0,0,0,1.19-.63,2.31,2.31,0,0,0,.47-1.42V15.12a2.31,2.31,0,0,0-.47-1.42,1.43,1.43,0,0,0-1.19-.63h-.47v-.85H274.8q1.14,0,1.14-.74h.86V24.14h-.86v-.46q0-.36,0-.87t-.19-1.54a17.35,17.35,0,0,0-.44-2,10.94,10.94,0,0,0-.83-2,8.45,8.45,0,0,0-1.29-1.86,5.76,5.76,0,0,0-1.88-1.31,6.16,6.16,0,0,0-2.56-.52h-8.62V30.21h8.62a3.13,3.13,0,0,0,1.68-.44,2.51,2.51,0,0,0,1-1.07,6.66,6.66,0,0,0,.44-1.27,4.81,4.81,0,0,0,.15-1.08v-.44h.86v9.9H272s0-.08,0-.23a2.18,2.18,0,0,0,0-.61l-.15-.83a3.13,3.13,0,0,0-.33-.92,5.05,5.05,0,0,0-.57-.85,2.21,2.21,0,0,0-.89-.61,3.35,3.35,0,0,0-1.29-.23h-8.62v19h9.79a6.16,6.16,0,0,0,2.56-.52,5.76,5.76,0,0,0,1.89-1.31,8.47,8.47,0,0,0,1.29-1.86,11,11,0,0,0,.83-2,17.25,17.25,0,0,0,.44-2,15.4,15.4,0,0,0,.19-1.54q0-.52,0-.87v-.46H278V52.6Z"/><path class="cls-3" d="M303.55,52.6q0-.74-1.14-.74H279.91V51h.47a1.43,1.43,0,0,0,1.19-.63A2.31,2.31,0,0,0,282,49V15.12a2.31,2.31,0,0,0-.47-1.42,1.43,1.43,0,0,0-1.19-.63h-.47v-.85h9.59v.85H289a1.43,1.43,0,0,0-1.19.63,2.31,2.31,0,0,0-.47,1.42V50.55h9a6.16,6.16,0,0,0,2.56-.52,5.76,5.76,0,0,0,1.89-1.31,8.45,8.45,0,0,0,1.29-1.86,11,11,0,0,0,.83-2,17.46,17.46,0,0,0,.44-2q.17-1,.19-1.54t0-.87v-.46h.86V52.6Z"/><path class="cls-3" d="M329.59,52.6q0-.74-1.14-.74H305.94V51h.47a1.43,1.43,0,0,0,1.19-.63,2.31,2.31,0,0,0,.47-1.42V15.12a2.31,2.31,0,0,0-.47-1.42,1.43,1.43,0,0,0-1.19-.63h-.47v-.85h9.59v.85h-.47a1.43,1.43,0,0,0-1.19.63,2.31,2.31,0,0,0-.47,1.42V50.55h9a6.16,6.16,0,0,0,2.56-.52,5.76,5.76,0,0,0,1.89-1.31,8.45,8.45,0,0,0,1.29-1.86,11,11,0,0,0,.83-2,17.46,17.46,0,0,0,.44-2q.17-1,.19-1.54t0-.87v-.46h.86V52.6Z"/><path class="cls-3" d="M342.54,51.32a17.55,17.55,0,0,1-5.56-3,19.3,19.3,0,0,1-4-4.52,20.15,20.15,0,0,1-2.45-5.56,23.84,23.84,0,0,1,0-12.28A20.14,20.14,0,0,1,333,20.34a19.32,19.32,0,0,1,4-4.53,17.57,17.57,0,0,1,5.56-3,22.67,22.67,0,0,1,14.08,0,17.56,17.56,0,0,1,5.56,3,19.34,19.34,0,0,1,4,4.53,20.15,20.15,0,0,1,2.45,5.56,23.84,23.84,0,0,1,0,12.28,20.16,20.16,0,0,1-2.45,5.56,19.31,19.31,0,0,1-4,4.52,17.54,17.54,0,0,1-5.56,3,22.67,22.67,0,0,1-14.08,0Zm13.85-1.61a12.2,12.2,0,0,0,4.39-3.84,18.68,18.68,0,0,0,2.59-5.5,23,23,0,0,0,.9-6.49,29.31,29.31,0,0,0-1-7.68,24.75,24.75,0,0,0-2.86-6.67,14.38,14.38,0,0,0-4.82-4.77A12.58,12.58,0,0,0,349,13a12.88,12.88,0,0,0-6.08,1.42,12.19,12.19,0,0,0-4.39,3.84,18.67,18.67,0,0,0-2.59,5.5,23,23,0,0,0-.9,6.49,29.31,29.31,0,0,0,1,7.68,24.75,24.75,0,0,0,2.86,6.67,14.37,14.37,0,0,0,4.82,4.77,12.58,12.58,0,0,0,6.63,1.79A12.87,12.87,0,0,0,356.39,49.7Z"/><path class="cls-1" d="M75,43a3.7,3.7,0,0,0,.94-2.39A1.7,1.7,0,0,0,74.23,39c-1.06.11-1.54,1.35-1.78,2.38A249.7,249.7,0,0,0,48.94,27.29c-1.87-1-4.29-1.9-6-.6-1.16.77,2.56,2.68,4.41,2.95s3.78.11,5.57.63c4.18,1.23,6.52,5.83,10.56,7.47,1.59.65,3.37.8,4.87,1.64a4,4,0,0,1,1.8,2c.29.81-.32,2,0,2.63C71.23,46,74.08,44.15,75,43Z"/><path class="cls-2" d="M49.77,24.65c-1.36-.73-3-1.47-4.4-.92-.35.13-.71.48-.56.81a.76.76,0,0,0,.36.31c2.4,1.27,5.08,1.93,7.58,3,7.13,3,12.67,9.37,20.19,11.28,2.33-.87-1.27-2.85-1.95-3.19-2.39-1.21-4.73-2.49-7.09-3.75Z"/><path class="cls-4" d="M47.16,36.09a4.78,4.78,0,0,0-1.09-.76.29.29,0,0,0-.37,0,.23.23,0,0,0,.08.33,1.82,1.82,0,0,1,.8,1,.67.67,0,0,1-.45.81A1.51,1.51,0,0,1,45,37.24a.74.74,0,0,1-.35-.64.29.29,0,0,0-.25-.29.24.24,0,0,0-.31.18,1.5,1.5,0,0,0,.86,1.6,2.15,2.15,0,0,0,2.27-.19,1.15,1.15,0,0,0,.41-.53v0A1.32,1.32,0,0,0,47.16,36.09Z"/><path class="cls-4" d="M51.74,34.6c-.79,0-1.47-.39-1.52-.83s.56-.78,1.35-.76,1,.43,1,.87S52.53,34.62,51.74,34.6Z"/><path class="cls-4" d="M47.55,45.08c.25.67.07,1.29-.42,1.38s-1.08-.38-1.34-1,.16-.86.64-.95A.84.84,0,0,1,47.55,45.08Z"/><path class="cls-4" d="M38.34,48.79c.25.67.07,1.29-.42,1.38s-1.08-.38-1.34-1,.16-.86.64-.95A.84.84,0,0,1,38.34,48.79Z"/><path class="cls-4" d="M62.57,42c.14.36,0,.69-.22.74s-.58-.2-.72-.56.08-.46.34-.51A.45.45,0,0,1,62.57,42Z"/><path class="cls-4" d="M56.73,36.23c.14.36,0,.69-.22.74s-.58-.2-.72-.56.08-.46.34-.51A.45.45,0,0,1,56.73,36.23Z"/><path class="cls-4" d="M43.54,40c.14.36,0,.69-.22.74s-.58-.2-.72-.56.08-.46.34-.51A.45.45,0,0,1,43.54,40Z"/><path class="cls-4" d="M59.61,43.7c.14.36,0,.69-.22.74s-.58-.2-.72-.56.08-.46.34-.51A.45.45,0,0,1,59.61,43.7Z"/><path class="cls-4" d="M53.92,37c.14.36,0,.69-.22.74s-.58-.2-.72-.56.08-.46.34-.51A.45.45,0,0,1,53.92,37Z"/><path class="cls-4" d="M50.47,36c.14.36,0,.69-.22.74s-.58-.2-.72-.56.08-.46.34-.51A.45.45,0,0,1,50.47,36Z"/><path class="cls-4" d="M49.83,47c.14.36,0,.69-.22.74s-.58-.2-.72-.56.08-.46.34-.51A.45.45,0,0,1,49.83,47Z"/><path class="cls-4" d="M43.08,47.88c.14.36,0,.69-.22.74s-.58-.2-.72-.56.08-.46.34-.51A.45.45,0,0,1,43.08,47.88Z"/><path class="cls-4" d="M48.27,32.85c.14.36,0,.69-.22.74s-.58-.2-.72-.56.08-.46.34-.51A.45.45,0,0,1,48.27,32.85Z"/><path class="cls-4" d="M61,39c.25.67.07,1.29-.42,1.38s-1.08-.38-1.34-1,.16-.86.64-.95A.84.84,0,0,1,61,39Z"/><path class="cls-4" d="M67.16,41.12c.25.67.07,1.29-.42,1.38s-1.08-.38-1.34-1,.16-.86.64-.95A.84.84,0,0,1,67.16,41.12Z"/><path class="cls-4" d="M54.27,44.37c.25.67.07,1.29-.42,1.38s-1.08-.38-1.34-1,.16-.86.64-.95A.84.84,0,0,1,54.27,44.37Z"/><path class="cls-4" d="M48.09,42.39a2.9,2.9,0,0,0,1.11.76,2.71,2.71,0,0,0,2.29-.23,5.05,5.05,0,0,0,1.34-1.29.32.32,0,0,0,.06-.27.44.44,0,0,0-.18-.26.5.5,0,0,0-.62,0,2.67,2.67,0,0,1-1.8.81A1.71,1.71,0,0,1,48.74,41a1.46,1.46,0,0,1,.42-1.54,1.27,1.27,0,0,1,1.18-.3.41.41,0,0,0,.52-.26.44.44,0,0,0-.35-.49,2.62,2.62,0,0,0-2.95.71A2.54,2.54,0,0,0,48.09,42.39Z"/><path class="cls-4" d="M41.91,42.69a2.22,2.22,0,0,0-1.06.05,1.5,1.5,0,0,0-1,1.26A4,4,0,0,0,40,45.47a.36.36,0,0,0,.15.2.44.44,0,0,0,.26.08.29.29,0,0,0,.31-.31,1.64,1.64,0,0,1,.38-1.39,1.23,1.23,0,0,1,1.36-.2,1.58,1.58,0,0,1,.79,1.19.74.74,0,0,1-.4.76.27.27,0,0,0-.09.42.42.42,0,0,0,.5.14,1.54,1.54,0,0,0,1-1.88A2.88,2.88,0,0,0,41.91,42.69Z"/><path class="cls-4" d="M56.59,42.3a.68.68,0,0,1-.62.09.22.22,0,0,0-.28.1.21.21,0,0,0,.15.26,1.4,1.4,0,0,0,1.56-.21,1.24,1.24,0,0,0-.05-1.64,1.42,1.42,0,0,0-.52-.44,1.44,1.44,0,0,0-1.19,0h0a2.77,2.77,0,0,0-.76.57.18.18,0,0,0,0,.27.26.26,0,0,0,.32,0,1.45,1.45,0,0,1,1-.31.85.85,0,0,1,.74.51A.74.74,0,0,1,56.59,42.3Z"/><path class="cls-4" d="M35,43.43l-5.76,9.66a2.47,2.47,0,0,0-.51,1.83c.32,1.16,1.94,1.2,3.13,1,8.85-1.61,17.6-3.71,26.35-5.8L65,48.48c1.6-.38,3.49-1,3.84-2.64-.54-.6-1.52-.43-2.3-.19-2.89.91-5.65,2.2-8.55,3.07-7.42,2.23-15.53,1.62-22.8,4.32a15,15,0,0,1-3.48.69c-1,.07-1.15-.41-.56-1.16,2.13-2.64,8.49-12.55,9.1-13.67.49-.9,2.12-4.42-.6-3.14C38,36.55,36,41.8,35,43.43Z"/><path class="cls-4" d="M52.3,13.71a33.59,33.59,0,0,1,7.57.87V4.14c0-4-3.27-4.14-7.3-4.14-4.33,0-7.83.35-7.83,4.67v9.91A33.59,33.59,0,0,1,52.3,13.71Z"/><path class="cls-4" d="M23.3,52.47c0-.12,0-.25,0-.37,0-18.45,13-33.4,29-33.4s29,15,29,33.4c0,.12,0,.25,0,.37h4.49C84.89,32.7,70.24,17,52.3,17S19.71,32.7,18.82,52.47Z"/><path class="cls-4" d="M0,52.47H15.13c0-.34,0-.68,0-1,0-18.78,12-34.54,28.1-38.92V7.15C19.3,11,1,29.68,0,52.47Zm104.6,0C103.62,29.68,85.3,11,61.4,7.15v5.38c16.14,4.38,28.1,20.14,28.1,38.92,0,.34,0,.68,0,1Z"/></g></g></svg>