<svg xmlns="http://www.w3.org/2000/svg" viewBox="0 0 286.87 155.29"><defs><style>.cls-1{fill:#c94554;}.cls-2{fill:#7fa344;}.cls-3{fill:#5c2134;}.cls-4{fill:#d3a676;}.cls-5{fill:#d4a770;}</style></defs><title>Ativo 1</title><g id="Camada_2" data-name="Camada 2"><g id="Camada_1-2" data-name="Camada 1"><rect class="cls-1" y="145.03" width="47.46" height="3.13"/><rect class="cls-2" y="152.07" width="47.46" height="3.13"/><rect class="cls-1" x="239.67" y="145.03" width="47.2" height="3.16"/><rect class="cls-2" x="239.67" y="152.13" width="47.2" height="3.16"/><path class="cls-3" d="M30.33,118.66v-.8h.58a1.82,1.82,0,0,0,1.48-.75,2.64,2.64,0,0,0,.6-1.68V71.05q-1.44.44-5.14,1.63t-5.59,1.75q-1.88.56-4.74,1.32a45.29,45.29,0,0,1-5.07,1.09,28.81,28.81,0,0,1-4.13.32,11.59,11.59,0,0,1-6-1.38A4.34,4.34,0,0,1,0,71.85,2.82,2.82,0,0,1,.67,70a2,2,0,0,1,1.64-.82,2,2,0,0,1,1.32.47,1.45,1.45,0,0,1,.54,1.14,1.32,1.32,0,0,1-.44,1,11,11,0,0,1-.89.73.92.92,0,0,0-.44.74,2.42,2.42,0,0,0,1.34,2.06,9.14,9.14,0,0,0,4.59.84,33.5,33.5,0,0,0,7.4-1q4.21-1,8.43-2.36l8.52-2.78a87.2,87.2,0,0,1,8.9-2.37,40.57,40.57,0,0,1,8.33-1,35.36,35.36,0,0,1,8.87,1.09,29.19,29.19,0,0,1,7.47,3,31.36,31.36,0,0,1,5.91,4.44,25.25,25.25,0,0,1,4.37,5.48,26.88,26.88,0,0,1,2.63,6.08,22.3,22.3,0,0,1,.91,6.25,23.29,23.29,0,0,1-1.43,8,26.35,26.35,0,0,1-4,7.21A32.25,32.25,0,0,1,68.9,114,26.08,26.08,0,0,1,61.74,118a22.88,22.88,0,0,1-7.82,1.41,16.18,16.18,0,0,1-9.72-2.93,10.37,10.37,0,0,1-4.56-7.53v6.68a2.29,2.29,0,0,0,.61,1.57,1.9,1.9,0,0,0,1.47.69h.58v.8Zm9.31-12.06a10.87,10.87,0,0,1,1.29-4.31,9.65,9.65,0,0,1,2.66-3.12,12,12,0,0,1,3.51-1.81A12.58,12.58,0,0,1,51,96.73a10.61,10.61,0,0,1,6.68,2.16,7,7,0,0,1,2.8,5.81,5.9,5.9,0,0,1-1.82,4.44,6.07,6.07,0,0,1-4.37,1.75,3.45,3.45,0,0,1-2.09-.66,2,2,0,0,1-.9-1.67,1.55,1.55,0,0,1,.43-1.1,1.41,1.41,0,0,1,1.07-.45,1.5,1.5,0,0,1,1,.34,1.37,1.37,0,0,1,.46.73,1.44,1.44,0,0,0,.43.73,1.35,1.35,0,0,0,1,.34,3.52,3.52,0,0,0,2.65-1.24,4.5,4.5,0,0,0,1.15-3.18,6.17,6.17,0,0,0-2.49-5,9.34,9.34,0,0,0-6-2,10.05,10.05,0,0,0-7.37,2.85,9.88,9.88,0,0,0-2.91,7.27,8.45,8.45,0,0,0,.87,3.65,11.86,11.86,0,0,0,2.48,3.4,12.23,12.23,0,0,0,4.19,2.56,15.56,15.56,0,0,0,5.66,1,16.14,16.14,0,0,0,6.54-1.35,17.2,17.2,0,0,0,5.42-3.73,24.18,24.18,0,0,0,4-5.55,28.26,28.26,0,0,0,2.59-6.94,33.84,33.84,0,0,0,.89-7.78,25.92,25.92,0,0,0-.78-6.28,28.2,28.2,0,0,0-2.2-5.94,24.31,24.31,0,0,0-3.58-5.23,25,25,0,0,0-4.78-4.17,22,22,0,0,0-6-2.76,24.12,24.12,0,0,0-7-1,39.57,39.57,0,0,0-9.51,1.45Z"/><path class="cls-3" d="M81.19,118.62v-.85h.47a1.43,1.43,0,0,0,1.19-.63,2.31,2.31,0,0,0,.47-1.42V81.87a2.31,2.31,0,0,0-.47-1.42,1.43,1.43,0,0,0-1.19-.63h-.47V79h9.59v.85h-.47a1.43,1.43,0,0,0-1.19.63,2.31,2.31,0,0,0-.47,1.42v33.85a2.31,2.31,0,0,0,.47,1.42,1.43,1.43,0,0,0,1.19.63h.47v.85Z"/><path class="cls-3" d="M123.72,72.74q-3.13,1.29-5.1,2a41.29,41.29,0,0,1-4.7,1.35,22.44,22.44,0,0,1-5,.63,10.27,10.27,0,0,1-2.13-.22,8.38,8.38,0,0,1-2-.71,3.82,3.82,0,0,1-1.58-1.48,4.44,4.44,0,0,1-.6-2.33,3.1,3.1,0,0,1,.67-1.94,2,2,0,0,1,1.64-.86,1.88,1.88,0,0,1,1.32.49,1.57,1.57,0,0,1,.54,1.21A1.78,1.78,0,0,1,106,72.2a1.76,1.76,0,0,0-.69,1.3A1.87,1.87,0,0,0,106.41,75a4.55,4.55,0,0,0,2.48.67,21.55,21.55,0,0,0,5.84-.92,58.84,58.84,0,0,0,6.4-2.24q3.17-1.32,6.47-2.64a52.63,52.63,0,0,1,7.06-2.24,29.93,29.93,0,0,1,7.14-.92,28.59,28.59,0,0,1,8.08,1.06,16.57,16.57,0,0,1,5.84,2.88,12.91,12.91,0,0,1,3.44,4.17,10.92,10.92,0,0,1,1.19,5,11.69,11.69,0,0,1-2,6.16,19.82,19.82,0,0,1-5.24,5.56,32.22,32.22,0,0,1,4.56,2.16,24.86,24.86,0,0,1,4.16,3,20.65,20.65,0,0,1,3.48,4,19.51,19.51,0,0,1,2.33,5.09,21.28,21.28,0,0,1,.89,6.23,22,22,0,0,1-1.29,7.52,21.17,21.17,0,0,1-3.55,6.32,29.43,29.43,0,0,1-5.3,5,30.57,30.57,0,0,1-6.54,3.68,40.26,40.26,0,0,1-7.26,2.21,37.31,37.31,0,0,1-7.5.77,34.2,34.2,0,0,1-10.3-1.58,32.29,32.29,0,0,1-8.89-4.27,21.74,21.74,0,0,1-6.21-6.56,15.44,15.44,0,0,1-2.36-8.15,16.84,16.84,0,0,1,1.12-6.19,15.59,15.59,0,0,1,3.12-5,21,21,0,0,1,4.55-3.68,25.08,25.08,0,0,1,5.57-2.47Zm-2.66,45.8v-.85h.58a1.79,1.79,0,0,0,1.48-.8,2.9,2.9,0,0,0,.6-1.78V101.49a15.38,15.38,0,0,0-6.46,6.6,19.3,19.3,0,0,0-2.22,9,17,17,0,0,0,1.19,6.27,17.85,17.85,0,0,0,3.31,5.41,23.9,23.9,0,0,0,4.88,4.16,22.93,22.93,0,0,0,6,2.75,23.5,23.5,0,0,0,6.65,1,27.55,27.55,0,0,0,9.33-1.51,21.47,21.47,0,0,0,7-4,24.07,24.07,0,0,0,4.75-5.7,24.61,24.61,0,0,0,2.81-6.58,26.73,26.73,0,0,0,.86-6.71,24.48,24.48,0,0,0-.87-6.63,19.25,19.25,0,0,0-2.43-5.46,23.11,23.11,0,0,0-3.44-4.12,20.38,20.38,0,0,0-4.13-3,19,19,0,0,1-9.31,2.47,15.79,15.79,0,0,1-5.34-.73q-2-.73-2-2.07t2.16-2.29a14.2,14.2,0,0,1,5.52-.92,30,30,0,0,1,8.54,1.37A14.28,14.28,0,0,0,155,79.88a11.92,11.92,0,0,0-.86-4.48,12.3,12.3,0,0,0-2.47-3.86,11.47,11.47,0,0,0-4.17-2.75,15.18,15.18,0,0,0-5.7-1,34.74,34.74,0,0,0-11.42,2.33V98.44q1.08-.08,2.13-.08a24.2,24.2,0,0,1,4.81.48,19.59,19.59,0,0,1,4.53,1.51,16.61,16.61,0,0,1,3.81,2.47,10.58,10.58,0,0,1,2.62,3.5,10.37,10.37,0,0,1,1,4.48,8.17,8.17,0,0,1-2.74,6.38,9,9,0,0,1-6.15,2.46,6.81,6.81,0,0,1-4-1.12,3.22,3.22,0,0,1-1.58-2.64,1.53,1.53,0,0,1,.47-1.19,1.56,1.56,0,0,1,1.08-.43,1.5,1.5,0,0,1,1.08.4,1.21,1.21,0,0,1,.42.89,1.6,1.6,0,0,1-.21.77,1.2,1.2,0,0,0,.64,1.83,4.3,4.3,0,0,0,2.15.48,7.89,7.89,0,0,0,7.87-7.83,9.11,9.11,0,0,0-2.27-6.11,14,14,0,0,0-5.81-4,21.47,21.47,0,0,0-7.64-1.33q-.75,0-2.13.11V115.1a2.9,2.9,0,0,0,.6,1.78,1.79,1.79,0,0,0,1.48.8H133v.85Zm21-28.14a10.06,10.06,0,0,0-3.91.69q-1.64.69-1.64,1.51T138,93.87a10.81,10.81,0,0,0,3.73.53A12.5,12.5,0,0,0,149.14,92,17.48,17.48,0,0,0,142.1,90.39Z"/><path class="cls-3" d="M194.56,119.35q0-.74-1.14-.74H170.09v-.85h.47a1.43,1.43,0,0,0,1.19-.63,2.31,2.31,0,0,0,.47-1.42V81.87a2.31,2.31,0,0,0-.47-1.42,1.43,1.43,0,0,0-1.19-.63h-.47V79h22.18q1.14,0,1.14-.74h.86V90.89h-.86v-.46q0-.36,0-.87T193.18,88a17.35,17.35,0,0,0-.44-2,10.94,10.94,0,0,0-.83-2,8.45,8.45,0,0,0-1.29-1.86,5.76,5.76,0,0,0-1.88-1.31,6.16,6.16,0,0,0-2.56-.52h-8.62V97h8.62a3.13,3.13,0,0,0,1.68-.44,2.51,2.51,0,0,0,1-1.07,6.66,6.66,0,0,0,.44-1.27,4.81,4.81,0,0,0,.15-1.08v-.44h.86v9.9h-.86s0-.08,0-.23a2.18,2.18,0,0,0,0-.61l-.15-.83a3.13,3.13,0,0,0-.33-.92,5.05,5.05,0,0,0-.57-.85,2.21,2.21,0,0,0-.89-.61,3.35,3.35,0,0,0-1.29-.23h-8.62v19h9.79a6.16,6.16,0,0,0,2.56-.52,5.76,5.76,0,0,0,1.89-1.31,8.47,8.47,0,0,0,1.29-1.86,11,11,0,0,0,.83-2,17.25,17.25,0,0,0,.44-2,15.4,15.4,0,0,0,.19-1.54q0-.52,0-.87v-.46h.86v12.66Z"/><path class="cls-3" d="M221,119.35q0-.74-1.14-.74H197.37v-.85h.47a1.43,1.43,0,0,0,1.19-.63,2.31,2.31,0,0,0,.47-1.42V81.87a2.31,2.31,0,0,0-.47-1.42,1.43,1.43,0,0,0-1.19-.63h-.47V79H207v.85h-.47a1.43,1.43,0,0,0-1.19.63,2.31,2.31,0,0,0-.47,1.42V117.3h9a6.16,6.16,0,0,0,2.56-.52,5.76,5.76,0,0,0,1.89-1.31,8.45,8.45,0,0,0,1.29-1.86,11,11,0,0,0,.83-2,17.46,17.46,0,0,0,.44-2q.17-1,.19-1.54t0-.87v-.46h.86v12.66Z"/><path class="cls-3" d="M247.05,119.35q0-.74-1.14-.74H223.41v-.85h.47a1.43,1.43,0,0,0,1.19-.63,2.31,2.31,0,0,0,.47-1.42V81.87a2.31,2.31,0,0,0-.47-1.42,1.43,1.43,0,0,0-1.19-.63h-.47V79H233v.85h-.47a1.43,1.43,0,0,0-1.19.63,2.31,2.31,0,0,0-.47,1.42V117.3h9a6.16,6.16,0,0,0,2.56-.52,5.76,5.76,0,0,0,1.89-1.31,8.45,8.45,0,0,0,1.29-1.86,11,11,0,0,0,.83-2,17.46,17.46,0,0,0,.44-2q.17-1,.19-1.54t0-.87v-.46h.86v12.66Z"/><path class="cls-3" d="M260,118.07a17.55,17.55,0,0,1-5.56-3,19.3,19.3,0,0,1-4-4.52,20.15,20.15,0,0,1-2.45-5.56,23.84,23.84,0,0,1,0-12.28,20.14,20.14,0,0,1,2.45-5.56,19.32,19.32,0,0,1,4-4.53,17.57,17.57,0,0,1,5.56-3,22.67,22.67,0,0,1,14.08,0,17.56,17.56,0,0,1,5.56,3,19.34,19.34,0,0,1,4,4.53,20.15,20.15,0,0,1,2.45,5.56,23.84,23.84,0,0,1,0,12.28,20.16,20.16,0,0,1-2.45,5.56,19.31,19.31,0,0,1-4,4.52,17.54,17.54,0,0,1-5.56,3,22.67,22.67,0,0,1-14.08,0Zm13.85-1.61a12.2,12.2,0,0,0,4.39-3.84,18.68,18.68,0,0,0,2.59-5.5,23,23,0,0,0,.9-6.49,29.31,29.31,0,0,0-1-7.68,24.75,24.75,0,0,0-2.86-6.67,14.38,14.38,0,0,0-4.82-4.77,12.58,12.58,0,0,0-6.63-1.79,12.88,12.88,0,0,0-6.08,1.42A12.19,12.19,0,0,0,256,85a18.67,18.67,0,0,0-2.59,5.5,23,23,0,0,0-.9,6.49,29.31,29.31,0,0,0,1,7.68,24.75,24.75,0,0,0,2.86,6.67,14.37,14.37,0,0,0,4.82,4.77,12.58,12.58,0,0,0,6.63,1.79A12.87,12.87,0,0,0,273.85,116.46Z"/><path class="cls-3" d="M65,145a5.1,5.1,0,0,1,3.33,1,2.3,2.3,0,0,1,.77,1.83,2.61,2.61,0,0,1-.88,2c-.89.8-1.64.94-3.29.94-.4,0-.65,0-1.06,0v2.75c0,1.17.2,1.37,1.44,1.43v.29h-4.3v-.29c1.2-.09,1.29-.26,1.29-1.58v-6.59c0-1.14-.15-1.32-1.29-1.41V145Zm-1.12,5.09c.35,0,.63,0,.94,0,1.69,0,2.61-.88,2.61-2.26,0-1.69-.92-2.31-3-2.31-.45,0-.54.14-.54.55Z"/><path class="cls-3" d="M83.49,155.2v-.29c1.29,0,1.49-.23,1.49-1.43v-6.75c0-1.22-.18-1.34-1.49-1.41V145h4.56v.29c-1.29.06-1.51.25-1.51,1.41v6.75c0,1.15.25,1.38,1.51,1.43v.29Z"/><path class="cls-3" d="M111,155.2h-8.65V155l6.72-9.36h-3.29a2.78,2.78,0,0,0-2.06.54,2.34,2.34,0,0,0-.63,1.51h-.4L103,145h8.07v.23l-6.64,9.36h3.87a3,3,0,0,0,1.8-.43c.51-.35.65-.78.92-1.69h.35Z"/><path class="cls-3" d="M134.22,155.2h-8.65V155l6.72-9.36H129a2.78,2.78,0,0,0-2.06.54,2.34,2.34,0,0,0-.63,1.51h-.4l.32-2.63h8.07v.23l-6.64,9.36h3.87a3,3,0,0,0,1.8-.43c.51-.35.65-.78.92-1.69h.35Z"/><path class="cls-3" d="M157.13,155.2h-8.28v-.29c1.18-.08,1.34-.28,1.34-1.46v-6.7c0-1.14-.18-1.37-1.34-1.43V145H157l.06,2.2h-.38c-.23-1.38-.58-1.61-2.37-1.61h-2c-.43,0-.54.06-.54.55v3.38h2.32c1.32,0,1.55-.26,1.74-1.47h.35v3.6h-.35c-.18-1.29-.42-1.49-1.74-1.49h-2.32v3.73c0,.65.41.72,1.55.72h.55c2.2,0,2.86-.4,3.55-2h.43Z"/><path class="cls-3" d="M179.55,155.2l-3.66-4.73-.86,0v3c0,1.17.18,1.35,1.37,1.43v.29h-4.24v-.29c1.15-.09,1.31-.26,1.31-1.61v-6.56c0-1.14-.12-1.32-1.31-1.41V145h4.18a5.1,5.1,0,0,1,3.21.91,2.43,2.43,0,0,1,.75,1.84c0,1.34-.86,2.23-2.78,2.52l3.07,3.89a1.66,1.66,0,0,0,1.44.72v.29ZM175,149.93a5.13,5.13,0,0,0,2.72-.52,2,2,0,0,0,.88-1.75c0-1.38-.91-2.06-2.81-2.06-.52,0-.78.11-.78.65Z"/><path class="cls-3" d="M196.26,155.2v-.29c1.29,0,1.49-.23,1.49-1.43v-6.75c0-1.22-.18-1.34-1.49-1.41V145h4.56v.29c-1.29.06-1.51.25-1.51,1.41v6.75c0,1.15.25,1.38,1.51,1.43v.29Z"/><path class="cls-3" d="M221.89,155.2v-.29c.55,0,.66,0,.84-.14a.45.45,0,0,0,.22-.37,3.25,3.25,0,0,0-.29-1.08l-.63-1.44h-4l-.71,1.75a2,2,0,0,0-.14.65c0,.48.34.63,1.08.63v.29h-3.06v-.29c.89-.09,1-.41,1.94-2.57l3.17-7.5h.31l3.78,8.65c.43,1,.65,1.32,1.44,1.41v.29ZM220,147l-1.77,4.23h3.55Z"/><path class="cls-1" d="M169.11,48.68A4.18,4.18,0,0,0,170.18,46a1.92,1.92,0,0,0-1.9-1.87c-1.2.12-1.74,1.53-2,2.7a282.62,282.62,0,0,0-26.61-15.91c-2.11-1.11-4.85-2.15-6.74-.67-1.32.88,2.9,3,5,3.34s4.27.12,6.3.72c4.74,1.4,7.38,6.6,12,8.46,1.8.73,3.82.9,5.51,1.85a4.57,4.57,0,0,1,2,2.28c.32.92-.36,2.28,0,3C164.89,52,168.12,50,169.11,48.68Z"/><path class="cls-2" d="M140.6,27.9c-1.54-.82-3.34-1.67-5-1-.39.15-.81.54-.63.92a.86.86,0,0,0,.41.35c2.72,1.44,5.75,2.18,8.58,3.39C152,35,158.31,42.12,166.83,44.29c2.64-1-1.43-3.22-2.21-3.61-2.7-1.37-5.36-2.82-8-4.24Z"/><path class="cls-4" d="M137.64,40.85a5.41,5.41,0,0,0-1.24-.86A.33.33,0,0,0,136,40a.26.26,0,0,0,.09.37,2.06,2.06,0,0,1,.9,1.12.75.75,0,0,1-.5.92,1.71,1.71,0,0,1-1.32-.31.84.84,0,0,1-.4-.72.32.32,0,0,0-.28-.32.28.28,0,0,0-.35.2,1.7,1.7,0,0,0,1,1.81,2.44,2.44,0,0,0,2.57-.22,1.3,1.3,0,0,0,.46-.6v0A1.49,1.49,0,0,0,137.64,40.85Z"/><path class="cls-4" d="M142.83,39.16c-.9,0-1.66-.44-1.72-.94s.63-.88,1.53-.86,1.08.49,1.13,1S143.72,39.18,142.83,39.16Z"/><path class="cls-4" d="M138.09,51c.29.76.08,1.46-.47,1.56s-1.23-.43-1.51-1.19.18-1,.72-1.07A1,1,0,0,1,138.09,51Z"/><path class="cls-4" d="M127.66,55.22c.29.76.08,1.46-.47,1.56s-1.23-.43-1.51-1.19.18-1,.72-1.07A1,1,0,0,1,127.66,55.22Z"/><path class="cls-4" d="M155.08,47.52c.15.41,0,.78-.25.84s-.66-.23-.81-.64.09-.52.39-.58A.51.51,0,0,1,155.08,47.52Z"/><path class="cls-4" d="M148.48,41c.15.41,0,.78-.25.84s-.66-.23-.81-.64.09-.52.39-.58A.51.51,0,0,1,148.48,41Z"/><path class="cls-4" d="M133.55,45.31c.15.41,0,.78-.25.84s-.66-.23-.81-.64.09-.52.39-.58A.51.51,0,0,1,133.55,45.31Z"/><path class="cls-4" d="M151.73,49.46c.15.41,0,.78-.25.84s-.66-.23-.81-.64.09-.52.39-.58A.51.51,0,0,1,151.73,49.46Z"/><path class="cls-4" d="M145.3,41.83c.15.41,0,.78-.25.84s-.66-.23-.81-.64.09-.52.39-.58A.51.51,0,0,1,145.3,41.83Z"/><path class="cls-4" d="M141.39,40.76c.15.41,0,.78-.25.84s-.66-.23-.81-.64.09-.52.39-.58A.51.51,0,0,1,141.39,40.76Z"/><path class="cls-4" d="M140.67,53.24c.15.41,0,.78-.25.84s-.66-.23-.81-.64.09-.52.39-.58A.51.51,0,0,1,140.67,53.24Z"/><path class="cls-4" d="M133,54.19c.15.41,0,.78-.25.84s-.66-.23-.81-.64.09-.52.39-.58A.51.51,0,0,1,133,54.19Z"/><path class="cls-4" d="M138.9,37.18c.15.41,0,.78-.25.84s-.66-.23-.81-.64.09-.52.39-.58A.51.51,0,0,1,138.9,37.18Z"/><path class="cls-4" d="M153.26,44.19c.29.76.08,1.46-.47,1.56s-1.23-.43-1.51-1.19.18-1,.72-1.07A1,1,0,0,1,153.26,44.19Z"/><path class="cls-4" d="M160.28,46.54c.29.76.08,1.46-.47,1.56s-1.23-.43-1.51-1.19.18-1,.72-1.07A1,1,0,0,1,160.28,46.54Z"/><path class="cls-4" d="M145.69,50.22c.29.76.08,1.46-.47,1.56s-1.23-.43-1.51-1.19.18-1,.72-1.07A1,1,0,0,1,145.69,50.22Z"/><path class="cls-4" d="M138.7,48a3.28,3.28,0,0,0,1.26.86,3.07,3.07,0,0,0,2.59-.27,5.72,5.72,0,0,0,1.52-1.46.36.36,0,0,0,.07-.31.5.5,0,0,0-.21-.3.56.56,0,0,0-.7,0,3,3,0,0,1-2,.92,1.93,1.93,0,0,1-1.76-1,1.66,1.66,0,0,1,.48-1.75,1.44,1.44,0,0,1,1.33-.34.46.46,0,0,0,.59-.29.5.5,0,0,0-.4-.55,3,3,0,0,0-3.34.8A2.88,2.88,0,0,0,138.7,48Z"/><path class="cls-4" d="M131.7,48.32a2.51,2.51,0,0,0-1.2.06,1.7,1.7,0,0,0-1.14,1.42,4.55,4.55,0,0,0,.18,1.67.41.41,0,0,0,.17.23.5.5,0,0,0,.3.09.32.32,0,0,0,.35-.35,1.85,1.85,0,0,1,.43-1.57,1.39,1.39,0,0,1,1.54-.22,1.79,1.79,0,0,1,.9,1.35.84.84,0,0,1-.46.86.3.3,0,0,0-.11.47.48.48,0,0,0,.56.16,1.74,1.74,0,0,0,1.17-2.13A3.26,3.26,0,0,0,131.7,48.32Z"/><path class="cls-4" d="M148.32,47.88a.77.77,0,0,1-.71.1.25.25,0,0,0-.32.12.24.24,0,0,0,.17.29,1.59,1.59,0,0,0,1.77-.23,1.41,1.41,0,0,0-.06-1.85,1.61,1.61,0,0,0-.59-.49,1.63,1.63,0,0,0-1.35,0h0a3.13,3.13,0,0,0-.86.65.2.2,0,0,0,0,.31.29.29,0,0,0,.36,0,1.64,1.64,0,0,1,1.11-.36,1,1,0,0,1,.84.58A.84.84,0,0,1,148.32,47.88Z"/><path class="cls-4" d="M123.89,49.16l-6.52,10.93a2.8,2.8,0,0,0-.58,2.07c.36,1.31,2.19,1.35,3.54,1.11,10-1.83,19.92-4.2,29.83-6.56l7.67-1.83c1.81-.43,4-1.18,4.35-3-.61-.68-1.72-.49-2.6-.21-3.27,1-6.39,2.49-9.67,3.48C141.5,57.66,132.32,57,124.1,60a17,17,0,0,1-3.93.78c-1.14.08-1.31-.47-.64-1.31,2.42-3,9.61-14.21,10.3-15.47.56-1,2.4-5-.68-3.55C127.25,41.37,125,47.31,123.89,49.16Z"/><path class="cls-4" d="M143.46,15.52a38,38,0,0,1,8.56,1V4.68C152,.12,148.33,0,143.77,0c-4.9,0-8.86.39-8.86,5.29V16.51A38,38,0,0,1,143.46,15.52Z"/><path class="cls-4" d="M110.64,59.39c0-.14,0-.28,0-.42,0-20.88,14.7-37.8,32.83-37.8S176.3,38.09,176.3,59c0,.14,0,.28,0,.42h5.08c-1-22.38-17.6-40.18-37.9-40.18S106.58,37,105.56,59.39Z"/><path class="cls-4" d="M84.27,59.39h17.12c0-.39,0-.77,0-1.15,0-21.26,13.53-39.1,31.8-44.06V8.09C106.11,12.44,85.38,33.6,84.27,59.39Zm118.39,0c-1.11-25.79-21.84-47-48.89-51.3v6.09c18.27,5,31.8,22.8,31.8,44.06,0,.39,0,.77,0,1.15Z"/><rect class="cls-5" y="130.92" width="104.62" height="1.8" rx="0.9" ry="0.9"/><rect class="cls-5" x="171.17" y="130.92" width="115.7" height="1.8" rx="0.9" ry="0.9"/></g></g></svg>